<svg xmlns="http://www.w3.org/2000/svg" width="71" height="40" viewBox="0 0 71 40">
    <g fill="none" fill-rule="evenodd">
        <path fill="#77F2D3" d="M6.502 17.27h-.386a3.061 3.061 0 0 1-.442-.064v-4.602L6 12.59h.318c.465-.01.93.046 1.378.167.34.092.656.252.931.471.23.187.41.43.52.707a2.4 2.4 0 0 1 .158.888 2.315 2.315 0 0 1-.712 1.818c-.467.418-1.164.628-2.09.63zM18.789 17.305c.043.205.068.414.073.624a.374.374 0 0 1-.07.264.423.423 0 0 1-.284.068H14.87c.044-.345.129-.684.252-1.01a2.73 2.73 0 0 1 .457-.786c.363-.44.907-.692 1.478-.683.322-.015.64.07.914.24.221.147.407.34.544.568.13.221.223.463.273.715z"/>
        <path fill="#77F2D3" d="M43.367 17.183a2.156 2.156 0 0 0-.442-.749 2.065 2.065 0 0 0-.726-.505 2.576 2.576 0 0 0-1.005-.181c-.171.004-.34.043-.496.113a1.67 1.67 0 0 0-.494.34 1.818 1.818 0 0 0-.383.568 1.875 1.875 0 0 0-.15.783c-.002.307.044.612.136.905.088.275.232.53.423.746.2.218.448.389.723.5.33.128.682.19 1.036.18.184 0 .366-.038.536-.11.185-.076.352-.19.49-.335.156-.164.279-.356.36-.567.096-.25.142-.518.137-.786a2.814 2.814 0 0 0-.145-.902zm1.249 7.475a1.016 1.016 0 0 0-.398-.371 3.191 3.191 0 0 0-.797-.304 9.767 9.767 0 0 0-1.308-.227 12.366 12.366 0 0 1-1.333-.221c-.315.178-.615.38-.9.604a3.248 3.248 0 0 0-.501.488c-.098.113-.171.244-.216.386-.03.102-.045.208-.045.315.003.247.089.485.244.678.18.232.406.426.664.567.31.169.642.296.987.377a4.92 4.92 0 0 0 1.188.142 3.35 3.35 0 0 0 1.061-.156c.29-.089.561-.232.798-.423.427-.346.675-.868.672-1.418a.851.851 0 0 0-.116-.437zm0 0a1.016 1.016 0 0 0-.398-.371 3.191 3.191 0 0 0-.797-.304 9.767 9.767 0 0 0-1.308-.227 12.366 12.366 0 0 1-1.333-.221c-.315.178-.615.38-.9.604a3.248 3.248 0 0 0-.501.488c-.098.113-.171.244-.216.386-.03.102-.045.208-.045.315.003.247.089.485.244.678.18.232.406.426.664.567.31.169.642.296.987.377a4.92 4.92 0 0 0 1.188.142 3.35 3.35 0 0 0 1.061-.156c.29-.089.561-.232.798-.423.427-.346.675-.868.672-1.418a.851.851 0 0 0-.116-.437zm-4.386-5.46c.2.218.448.388.723.498.33.13.682.19 1.036.182.184 0 .366-.038.536-.11.185-.076.352-.19.49-.335.156-.164.279-.357.36-.568.096-.25.142-.517.137-.786a2.814 2.814 0 0 0-.145-.905 2.156 2.156 0 0 0-.442-.748 2.065 2.065 0 0 0-.726-.505 2.576 2.576 0 0 0-1.005-.182c-.171.005-.34.043-.496.113a1.67 1.67 0 0 0-.494.34 1.818 1.818 0 0 0-.383.568 1.875 1.875 0 0 0-.15.783c-.002.307.044.612.136.905.087.277.231.532.423.75zm16.533.66v-.31c0-.192-.023-.385-.042-.566 0-.111-.02-.225-.034-.338-.015-.114-.026-.218-.04-.33a9.344 9.344 0 0 0-.057-.39c-.023-.131-.037-.228-.057-.341l-.056-.304c-.029-.158-.068-.314-.105-.476a14.056 14.056 0 0 0-.607-1.963c-.046-.117-.057-.15-.091-.227a9.276 9.276 0 0 0-.185-.429c-.065-.144-.096-.215-.147-.323l-.159-.33a5.816 5.816 0 0 0-.159-.3c-.054-.096-.113-.21-.17-.309-.057-.1-.12-.204-.179-.304-.06-.099-.105-.17-.156-.252a7.903 7.903 0 0 0-.241-.363c-.085-.12-.125-.179-.19-.267-.065-.088-.14-.193-.213-.284-.031-.045-.07-.093-.108-.139l-.11-.139a11.597 11.597 0 0 0-.392-.46l-.07-.079a11.946 11.946 0 0 0-.494-.513 6.355 6.355 0 0 0-.284-.264c-.1-.088-.19-.17-.284-.255l-.19-.159-.19-.156a9.553 9.553 0 0 0-.377-.312c-.128-.1-.253-.207-.38-.304l-.04-.03-.176-.131a12.406 12.406 0 0 0-.431-.332c-.201-.15-.4-.301-.604-.449-.41-.295-.824-.578-1.24-.85-.417-.284-.851-.545-1.274-.8C36.113-.636 21.316-1.587 9.248 2.237 3.271 4.136-1.177 9.47.284 16.023c.547 2.46 1.9 4.644 3.66 6.476v-9.733l-.656.094-.65.09-.105-.65c.298-.073.607-.141.92-.206a17.413 17.413 0 0 1 2.05-.298c.375-.031.77-.046 1.19-.046a7.96 7.96 0 0 1 1.948.213c.482.113.94.313 1.35.59a2.332 2.332 0 0 1 1.05 1.986c.006.402-.058.803-.19 1.183-.12.347-.298.67-.528.956a3.29 3.29 0 0 1-.82.73c-.327.2-.68.356-1.05.464l2.838 4.31c.08.116.175.221.283.312.102.079.218.138.34.176.138.042.28.066.424.07.182.006.365 0 .547-.017l.11.488a14.801 14.801 0 0 1-1.245.358 7.226 7.226 0 0 1-.567.116 3.07 3.07 0 0 1-.437.04 1.018 1.018 0 0 1-.533-.142 1.03 1.03 0 0 1-.38-.357l-2.735-5.107h-.451c-.16 0-.32 0-.48-.023a4.037 4.037 0 0 1-.493-.062v4.52a.488.488 0 0 0 .32.283c.318.136.652.23.993.284v.482H5.09a21.472 21.472 0 0 0 1.986 1.54c6.392 4.38 14.06 6.179 21.473 7.96 1.682.403 3.378.82 5.083 1.167.15.03.298.06.451.087.303.061.605.119.905.173l.474.08.42.07a33.048 33.048 0 0 0 1.126.163l.389.048c.159.02.32.04.48.054l.297.028c.145.017.284.028.44.04.24.02.484.038.732.05l.283.015c.21 0 .417.02.63.023h.244c.998.018 1.996-.03 2.987-.142 6.196-.72 11.348-4.76 12.829-10.897.338-1.374.488-2.789.445-4.204zm-41.747.624c.112.386.288.75.519 1.078.212.299.487.547.805.73.326.189.696.287 1.073.283.19.002.38-.01.567-.037.2-.03.397-.083.585-.159.243-.1.477-.222.7-.363.314-.199.617-.414.908-.644a.68.68 0 0 1 .23.221c.076.105.127.18.156.23-.348.376-.716.732-1.104 1.067-.277.241-.58.451-.902.627a2.916 2.916 0 0 1-.85.298c-.303.052-.61.078-.917.076a3.26 3.26 0 0 1-1.39-.306 3.543 3.543 0 0 1-1.169-.888 4.17 4.17 0 0 1-.792-1.35 4.996 4.996 0 0 1-.283-1.765c0-.404.043-.808.13-1.203.086-.381.216-.751.386-1.103.169-.341.377-.661.621-.953a4.36 4.36 0 0 1 .851-.772c.156-.106.32-.201.488-.284.184-.094.373-.176.568-.244.193-.07.391-.127.593-.17.186-.039.376-.06.567-.062.364-.006.727.047 1.075.156.305.094.592.238.851.425.238.179.446.394.616.639.166.243.304.505.411.78.107.275.186.56.236.85.048.282.072.567.073.852a1.898 1.898 0 0 1-.488.366 5.132 5.132 0 0 1-.615.283h-4.69c.001.454.065.906.19 1.342zm11.775-5.424l.284.284c-.063.1-.133.194-.21.284a3.163 3.163 0 0 1-.247.283c-.082.082-.15.196-.235.261-.063.062-.131.117-.204.165a3.064 3.064 0 0 0-.607-.216 4.661 4.661 0 0 0-1.135-.105v6.559a.15.15 0 0 0 .096.11c.101.052.208.09.318.117.148.037.343.085.587.136.244.051.542.114.902.179v.488h-4.822v-.488c.328-.048.647-.144.947-.284a.48.48 0 0 0 .315-.283v-6.525H21.61l-.213-.284.717-.68h.681v-.285c-.008-.56.037-1.119.134-1.67.073-.415.197-.819.368-1.203.143-.316.33-.61.554-.874.21-.243.438-.47.683-.678.186-.158.385-.299.596-.42a5.45 5.45 0 0 1 .63-.306c.193-.077.39-.14.593-.188.162-.04.329-.066.496-.073.227.001.452.039.667.11.208.07.411.154.607.253.158.078.307.174.445.284a.411.411 0 0 1 .176.23.502.502 0 0 1-.153.283 4.607 4.607 0 0 1-.357.36 8.977 8.977 0 0 1-.423.344 2.13 2.13 0 0 1-.355.226 3.237 3.237 0 0 0-.868-.643 1.75 1.75 0 0 0-.695-.202.95.95 0 0 0-.49.153 1.39 1.39 0 0 0-.466.568 4.255 4.255 0 0 0-.352 1.12c-.1.603-.146 1.213-.136 1.824v.789h2.343v-.003zm9.93 8.122c-.23.133-.449.255-.65.358a5.518 5.518 0 0 1-.536.25 1.1 1.1 0 0 1-.344.093.548.548 0 0 1-.306-.094.791.791 0 0 1-.247-.283 2.12 2.12 0 0 1-.19-.528 5.075 5.075 0 0 1-.116-.794 9.52 9.52 0 0 1-1.041.885 5.467 5.467 0 0 1-.851.519 2.89 2.89 0 0 1-.324.13c-.128.05-.26.088-.394.114-.204.039-.41.059-.618.06a2.837 2.837 0 0 1-.834-.123 1.62 1.62 0 0 1-.713-.434 2.23 2.23 0 0 1-.502-.868 4.477 4.477 0 0 1-.19-1.418v-3.912c0-.284 0-.522-.022-.684a.618.618 0 0 0-.134-.369.599.599 0 0 0-.343-.167 9.782 9.782 0 0 0-.658-.094v-.46a9.18 9.18 0 0 0 1.91-.369c.198-.059.408-.13.629-.212l.283.377v5.348c-.006.344.024.689.088 1.027.042.229.128.448.253.644.099.15.241.267.408.335.176.068.363.102.55.099a2.12 2.12 0 0 0 .537-.077 2.34 2.34 0 0 0 .173-.05c.14-.052.277-.113.409-.185.23-.126.447-.271.652-.434.254-.21.497-.433.726-.67v-4.06a4.454 4.454 0 0 0-.037-.66.678.678 0 0 0-.167-.386.752.752 0 0 0-.383-.196 4.21 4.21 0 0 0-.672-.074v-.456c.472-.051.94-.132 1.401-.244.434-.108.851-.222 1.223-.338l.283.377v6.02c-.004.295.01.59.04.883 0 .151.062.296.17.402.11.055.237.066.355.032.246-.054.485-.136.712-.244l.14.505c-.228.147-.452.289-.682.422l.012.003zm8.244-6.264a2.65 2.65 0 0 1-.207 2.09 3.33 3.33 0 0 1-.832 1.003 3.926 3.926 0 0 1-1.188.652 4.11 4.11 0 0 1-1.368.235h-.054a2.86 2.86 0 0 0-.55.568.999.999 0 0 0-.142.284.298.298 0 0 0 .085.198.786.786 0 0 0 .326.187c.226.078.458.138.693.18.283.056.683.118 1.163.178.576.057 1.146.17 1.702.335.378.112.737.28 1.067.496.235.155.426.37.553.621.103.222.157.464.156.71 0 .319-.067.635-.196.927-.13.31-.31.597-.53.851a4.5 4.5 0 0 1-.798.715 5.861 5.861 0 0 1-.978.55c-.354.152-.72.272-1.095.358a5.016 5.016 0 0 1-1.135.128c-.313-.001-.626-.02-.936-.057a6.925 6.925 0 0 1-.948-.187 5.523 5.523 0 0 1-.882-.33 3.12 3.12 0 0 1-.735-.476 2.23 2.23 0 0 1-.502-.636 1.716 1.716 0 0 1-.184-.802c.002-.168.034-.334.093-.491.082-.202.203-.386.355-.542.222-.233.466-.444.729-.63.398-.282.814-.54 1.245-.769a2.235 2.235 0 0 1-.817-.465.752.752 0 0 1-.244-.519.59.59 0 0 1 .06-.221c.058-.12.132-.232.221-.332a3.93 3.93 0 0 1 .443-.434c.228-.195.465-.377.712-.548a3.404 3.404 0 0 1-.871-.38 2.655 2.655 0 0 1-1.115-1.356 2.809 2.809 0 0 1-.153-.936c0-.444.107-.88.312-1.274.208-.398.489-.753.828-1.047a4.13 4.13 0 0 1 1.183-.709c.441-.173.91-.262 1.385-.26a3.5 3.5 0 0 1 1.985.606 8.794 8.794 0 0 0 1.524-.283c.405-.122.74-.23.996-.324l.212.284c-.068.156-.139.32-.215.485a2.27 2.27 0 0 1-.31.48c-.22.036-.445.07-.666.096-.221.025-.474.048-.75.06.157.223.279.469.361.728l.012.003zm3.622 3.566c.112.386.286.75.517 1.078.212.299.487.547.805.73.326.188.696.286 1.073.283.19.002.379-.01.567-.037.2-.03.397-.083.584-.159a4.67 4.67 0 0 0 .701-.363c.313-.199.616-.414.908-.644a.68.68 0 0 1 .23.221c.076.105.127.18.156.23-.348.376-.717.732-1.104 1.067a4.97 4.97 0 0 1-.905.627 2.87 2.87 0 0 1-.85.298c-.304.052-.61.078-.917.076a3.282 3.282 0 0 1-1.393-.306 3.563 3.563 0 0 1-1.16-.888 4.17 4.17 0 0 1-.792-1.35 4.996 4.996 0 0 1-.284-1.765c0-.404.044-.808.13-1.203a4.823 4.823 0 0 1 1.007-2.057c.25-.293.536-.552.852-.771.156-.106.319-.2.488-.284.183-.094.373-.176.567-.244.194-.07.392-.127.593-.17.187-.039.377-.06.568-.062a3.45 3.45 0 0 1 1.078.156c.305.094.592.238.85.425.239.179.446.394.616.639.167.243.305.505.412.78.107.275.186.56.235.85.048.282.073.567.074.852a1.898 1.898 0 0 1-.488.366 5.126 5.126 0 0 1-.616.283h-4.695c.002.455.067.906.193 1.342zm3.5-3.872a1.782 1.782 0 0 0-.547-.567 1.583 1.583 0 0 0-.913-.242 1.878 1.878 0 0 0-1.478.684c-.195.235-.35.5-.457.786a4.428 4.428 0 0 0-.252 1.01h3.645c.1.012.2-.013.284-.068a.374.374 0 0 0 .07-.264 3.234 3.234 0 0 0-.073-.624 2.352 2.352 0 0 0-.278-.715zM39.38 24.627c-.098.113-.171.244-.216.386-.03.102-.045.208-.045.315.003.247.089.485.244.678.18.232.406.426.664.567.31.169.642.296.987.377a4.92 4.92 0 0 0 1.188.142 3.35 3.35 0 0 0 1.061-.156c.29-.089.561-.232.798-.423.427-.346.675-.868.672-1.418a.851.851 0 0 0-.11-.431 1.016 1.016 0 0 0-.398-.372 3.191 3.191 0 0 0-.797-.303 9.767 9.767 0 0 0-1.308-.227 12.366 12.366 0 0 1-1.333-.222c-.315.178-.616.38-.9.605a3.248 3.248 0 0 0-.507.482zm3.546-8.19a2.065 2.065 0 0 0-.726-.505 2.576 2.576 0 0 0-1.005-.182c-.171.005-.34.044-.496.114a1.67 1.67 0 0 0-.494.34 1.818 1.818 0 0 0-.383.568 1.875 1.875 0 0 0-.15.783c-.002.306.044.612.136.905.088.275.232.529.423.746.2.218.448.389.723.499.33.129.682.19 1.036.182.184-.001.366-.039.536-.111.185-.076.352-.19.49-.335.156-.164.279-.356.36-.567.096-.251.142-.518.137-.786a2.814 2.814 0 0 0-.145-.905 2.156 2.156 0 0 0-.442-.749v.003z"/>
        <path fill="#6DC7BC" d="M32.52 22.482c0-.03.025-.068.039-.099.025-.077.057-.153.09-.23.035-.076.069-.164.103-.247.448-1.057.974-2.079 1.574-3.058v2.343a8.939 8.939 0 0 1-.74.667 4.556 4.556 0 0 1-.653.434 2.956 2.956 0 0 1-.414.19zM40.953 19.696a1.986 1.986 0 0 1-.723-.499 2.08 2.08 0 0 1-.423-.757 2.982 2.982 0 0 1-.136-.905 1.875 1.875 0 0 1 .15-.783c.09-.212.22-.404.383-.568a1.67 1.67 0 0 1 .494-.34c.156-.07.325-.109.496-.114.344-.007.685.055 1.005.182.275.114.523.286.726.505.197.217.347.472.442.749.098.292.147.597.145.905.005.268-.041.535-.136.786-.082.21-.205.403-.36.567-.139.145-.306.26-.491.335-.17.072-.352.11-.536.11a2.667 2.667 0 0 1-1.036-.173zM39.362 26.009a1.106 1.106 0 0 1-.244-.679c0-.106.016-.212.045-.314.045-.142.118-.274.216-.386.149-.18.317-.344.502-.488.285-.222.586-.42.902-.596a12.366 12.366 0 0 0 1.333.221c.44.046.878.122 1.308.227.278.065.546.167.797.304.164.085.301.214.397.372.075.13.113.28.111.43a1.813 1.813 0 0 1-.672 1.42c-.237.19-.507.333-.797.422a3.35 3.35 0 0 1-1.061.156c-.4.001-.8-.046-1.19-.142a4.003 4.003 0 0 1-.983-.383 2.139 2.139 0 0 1-.664-.564z"/>
        <path fill="#66D9C9" d="M52.36 17.305a2.352 2.352 0 0 0-.283-.71 1.782 1.782 0 0 0-.548-.567 1.583 1.583 0 0 0-.913-.24 1.878 1.878 0 0 0-1.478.683c-.196.234-.35.5-.457.786a4.428 4.428 0 0 0-.253 1.01h3.657c.1.011.2-.013.284-.068a.374.374 0 0 0 .07-.264 3.234 3.234 0 0 0-.079-.63zm0 0a2.352 2.352 0 0 0-.283-.71 1.782 1.782 0 0 0-.548-.567 1.583 1.583 0 0 0-.913-.24 1.878 1.878 0 0 0-1.478.683c-.196.234-.35.5-.457.786a4.428 4.428 0 0 0-.253 1.01h3.657c.1.011.2-.013.284-.068a.374.374 0 0 0 .07-.264 3.234 3.234 0 0 0-.079-.63zm18.466-1.895a4.335 4.335 0 0 0-.809-1.478 3.702 3.702 0 0 0-1.39-1.01 4.823 4.823 0 0 0-1.898-.349c-.282 0-.56.009-.837.026v9.495a.72.72 0 0 0 .074.343c.119.133.282.219.46.241.346.063.697.09 1.05.08.433-.008.86-.11 1.25-.298.46-.215.867-.527 1.195-.914.203-.23.379-.484.524-.755.458-1.75.587-3.572.38-5.37v-.011zm-3.101 8.193h-4.888v-.488c.331-.061.655-.156.967-.284.227-.102.34-.196.34-.283v-9.782l-.689.094c-.221.028-.428.06-.618.09l-.1-.66c.284-.074.61-.142.982-.21a20.46 20.46 0 0 1 1.18-.18 20.197 20.197 0 0 1 2.446-.161 6.905 6.905 0 0 1 2.377.383c.12.043.238.09.352.142a14.851 14.851 0 0 0-7.004-7.918c-4.174-2.173-9.362-1.28-13.504.542a25.89 25.89 0 0 0-2.323 1.163l-.48.284c-.113.062-.221.13-.332.198l-.4.247c-.133.082-.264.165-.394.253-.261.167-.522.343-.777.522l-.386.283-.378.284c-.377.284-.748.567-1.114.851l-.403.332c-.267.224-.53.451-.795.68l-.391.353c-.378.353-.757.714-1.135 1.08l-.369.372-.122.125c-.19.196-.377.391-.567.593-.19.201-.38.408-.567.618-.023.023-.043.048-.068.077-.18.201-.358.403-.528.607-.25.284-.497.587-.738.882l-.437.542c-.042.06-.093.12-.139.179-.175.23-.354.46-.527.69l-.216.283v4.794c-.004.295.01.59.04.882 0 .152.062.297.17.403.11.054.237.066.355.031.246-.054.484-.135.712-.244l.139.505c-.23.148-.457.284-.687.423a9.82 9.82 0 0 1-.65.358 5.518 5.518 0 0 1-.536.25 1.1 1.1 0 0 1-.343.093.548.548 0 0 1-.306-.094.791.791 0 0 1-.247-.283 2.12 2.12 0 0 1-.19-.528 5.075 5.075 0 0 1-.116-.794 9.52 9.52 0 0 1-1.042.885 5.467 5.467 0 0 1-.85.519 2.89 2.89 0 0 1-.324.13 7.944 7.944 0 0 0-.12.426c-.033.142-.067.25-.096.377l-.07.284c-.091.406-.161.816-.21 1.228 0 .082-.02.162-.029.247a6.105 6.105 0 0 0-.023.284 3.16 3.16 0 0 0-.022.334c0 .094 0 .185-.014.284a11.458 11.458 0 0 0 .941 5.01c.06.133.091.207.14.306.048.1.136.284.212.426.046.094.097.184.145.284.048.099.102.181.153.283.082.142.165.284.255.417.057.094.12.185.182.284.023.037.048.074.077.11a12.73 12.73 0 0 0 7.988 5.23c3.064.566 6.241-.035 9.146-1.19 5.212-2.082 9.875-5.563 14.023-9.285 1.986-1.776 3.662-3.432 4.772-5.767a4.823 4.823 0 0 1-.65.204 5.39 5.39 0 0 1-1.18.11zm-20.88-5.22c.086-.381.216-.752.386-1.104.169-.34.378-.66.621-.953.249-.293.535-.553.852-.771.155-.106.318-.201.487-.284.184-.095.373-.176.568-.244.193-.07.391-.127.593-.17.186-.04.376-.06.567-.063a3.45 3.45 0 0 1 1.078.156c.305.095.592.239.851.426.238.178.446.394.616.638.166.244.304.505.411.78.107.275.186.56.236.851.048.282.072.566.073.851a1.898 1.898 0 0 1-.488.366 5.126 5.126 0 0 1-.615.284h-4.687c.004.447.069.89.193 1.32.112.385.286.749.517 1.077.212.299.487.547.805.73.326.188.696.286 1.073.283.19.002.379-.01.567-.037.2-.03.397-.083.584-.159a4.67 4.67 0 0 0 .701-.363c.313-.199.616-.414.908-.644a.68.68 0 0 1 .23.221c.076.105.127.18.156.23-.348.376-.717.732-1.104 1.067a4.97 4.97 0 0 1-.905.627 2.87 2.87 0 0 1-.85.298c-.304.052-.61.078-.917.076a3.282 3.282 0 0 1-1.393-.306 3.563 3.563 0 0 1-1.16-.871 4.17 4.17 0 0 1-.792-1.35 4.996 4.996 0 0 1-.284-1.765 5.54 5.54 0 0 1 .122-1.197zm-9.29 6.808c.082-.201.202-.385.354-.541.222-.234.466-.445.73-.63.394-.279.806-.532 1.233-.758a2.235 2.235 0 0 1-.817-.465.752.752 0 0 1-.244-.519.59.59 0 0 1 .06-.221c.058-.12.132-.232.221-.332a3.93 3.93 0 0 1 .443-.434c.228-.195.465-.377.712-.548a3.404 3.404 0 0 1-.871-.38 2.655 2.655 0 0 1-1.115-1.356 2.809 2.809 0 0 1-.153-.936c0-.444.107-.88.312-1.274.208-.398.489-.753.828-1.047a4.13 4.13 0 0 1 1.183-.709c.441-.173.91-.262 1.385-.26a3.5 3.5 0 0 1 1.985.606 8.794 8.794 0 0 0 1.524-.283c.405-.122.74-.23.996-.324l.212.284c-.068.156-.139.32-.215.485a2.27 2.27 0 0 1-.31.48c-.22.036-.445.07-.666.096-.221.025-.474.048-.75.06a2.618 2.618 0 0 1 .48 1.515c.01.455-.099.906-.315 1.307a3.33 3.33 0 0 1-.83 1.002 3.926 3.926 0 0 1-1.19.652 4.11 4.11 0 0 1-1.367.235h-.054a2.86 2.86 0 0 0-.55.568.999.999 0 0 0-.142.284.298.298 0 0 0 .085.198.786.786 0 0 0 .326.187c.226.078.458.138.693.18.283.056.683.118 1.163.178.576.057 1.146.17 1.702.335.378.112.737.28 1.067.496.235.155.426.37.553.621.103.222.157.464.156.71 0 .319-.067.635-.196.927-.13.31-.31.597-.53.851a4.5 4.5 0 0 1-.798.715 5.861 5.861 0 0 1-.978.55c-.354.152-.72.272-1.095.358a5.016 5.016 0 0 1-1.135.128c-.313-.001-.626-.02-.936-.057a6.925 6.925 0 0 1-.948-.187 5.523 5.523 0 0 1-.882-.33 3.12 3.12 0 0 1-.735-.476 2.23 2.23 0 0 1-.502-.636 1.716 1.716 0 0 1-.184-.802c.004-.172.04-.34.105-.5v-.003zm24.042-12.683c-.332.06-.657.155-.97.283-.23.105-.346.202-.346.284v9.478c.061.14.182.244.329.284.316.135.648.23.987.284v.482h-4.369v-.488a4.9 4.9 0 0 0 .965-.284c.23-.102.343-.196.343-.283v-9.464a.5.5 0 0 0-.323-.284 4.102 4.102 0 0 0-.985-.284v-.49h4.37v.487-.005zm-9.234 5.696a.374.374 0 0 0 .071-.264 3.234 3.234 0 0 0-.074-.624 2.352 2.352 0 0 0-.283-.709 1.782 1.782 0 0 0-.548-.567 1.583 1.583 0 0 0-.913-.241 1.878 1.878 0 0 0-1.478.683c-.196.235-.35.5-.457.786a4.428 4.428 0 0 0-.253 1.01h3.657a.423.423 0 0 0 .278-.074zm0-.888a2.352 2.352 0 0 0-.284-.709 1.782 1.782 0 0 0-.547-.567 1.583 1.583 0 0 0-.914-.241 1.878 1.878 0 0 0-1.478.683c-.195.235-.35.5-.456.786a4.428 4.428 0 0 0-.253 1.01h3.654c.1.012.2-.012.284-.068a.374.374 0 0 0 .07-.264 3.234 3.234 0 0 0-.079-.641l.003.011zm0 0a2.352 2.352 0 0 0-.284-.709 1.782 1.782 0 0 0-.547-.567 1.583 1.583 0 0 0-.914-.241 1.878 1.878 0 0 0-1.478.683c-.195.235-.35.5-.456.786a4.428 4.428 0 0 0-.253 1.01h3.654c.1.012.2-.012.284-.068a.374.374 0 0 0 .07-.264 3.234 3.234 0 0 0-.079-.641l.003.011z"/>
        <path fill="#88CFC0" d="M32.928 22.295a2.956 2.956 0 0 1-.409.184c0-.03.023-.068.037-.099.026-.076.057-.153.09-.23.035-.076.069-.164.103-.246a23.058 23.058 0 0 1 1.577-3.056v2.343a8.939 8.939 0 0 1-.74.667c-.207.165-.427.31-.658.437zM43.367 17.183c.098.292.147.597.145.905.005.268-.041.535-.136.786-.082.21-.205.403-.36.567-.139.145-.306.26-.491.335-.17.072-.352.11-.536.11a2.667 2.667 0 0 1-1.036-.181 1.986 1.986 0 0 1-.723-.5 2.08 2.08 0 0 1-.423-.765 2.982 2.982 0 0 1-.136-.905 1.875 1.875 0 0 1 .15-.783c.09-.212.22-.404.383-.568a1.67 1.67 0 0 1 .494-.34c.156-.07.325-.109.496-.114.344-.007.685.055 1.005.182.275.114.523.286.726.505.199.222.35.483.442.766zM39.88 24.139c.286-.22.588-.419.903-.593a12.366 12.366 0 0 0 1.333.221c.44.046.878.122 1.308.227.278.065.546.167.797.304.164.085.301.214.397.372.075.13.113.28.111.43a1.813 1.813 0 0 1-.672 1.42c-.237.19-.507.333-.797.422a3.35 3.35 0 0 1-1.061.156c-.4.001-.8-.046-1.19-.142a4.003 4.003 0 0 1-.983-.383 2.139 2.139 0 0 1-.664-.567 1.106 1.106 0 0 1-.244-.678c0-.107.016-.213.045-.315.045-.142.118-.273.216-.386.149-.18.317-.344.502-.488z"/>
        <path fill="#88CFC0" d="M56.763 19.858v-.31c0-.192-.023-.385-.042-.566 0-.111-.02-.225-.034-.338-.015-.114-.026-.218-.04-.33a9.344 9.344 0 0 0-.057-.39c-.023-.131-.037-.228-.057-.341l-.056-.304c-.029-.158-.068-.314-.105-.476a14.056 14.056 0 0 0-.607-1.963c-.046-.117-.057-.15-.091-.227a9.276 9.276 0 0 0-.185-.429c-.065-.144-.096-.215-.147-.323l-.159-.33a5.816 5.816 0 0 0-.159-.3c-.054-.096-.113-.21-.17-.309-.057-.1-.12-.204-.179-.304-.06-.099-.105-.17-.156-.252a7.903 7.903 0 0 0-.241-.363c-.085-.12-.125-.179-.19-.267-.065-.088-.14-.193-.213-.284-.031-.045-.07-.093-.108-.139l-.11-.139a11.597 11.597 0 0 0-.392-.46l-.07-.079a11.946 11.946 0 0 0-.494-.513 6.355 6.355 0 0 0-.284-.264l-.284-.252-.19-.162-.19-.156a9.553 9.553 0 0 0-.377-.312c-.128-.1-.253-.207-.38-.304l-.04-.03-.176-.131a12.406 12.406 0 0 0-.431-.332c-.201-.15-.4-.301-.604-.449-.41-.295-.824-.578-1.24-.85-.416-.273-.84-.54-1.274-.8l-.48.283c-.113.063-.22.13-.331.199l-.4.247c-.133.082-.264.164-.394.252-.261.167-.522.343-.778.522l-.386.284-.377.283c-.377.284-.749.568-1.115.851l-.403.332c-.266.224-.53.451-.794.681l-.391.352c-.379.354-.757.714-1.135 1.08l-.369.372-.122.125c-.19.196-.377.392-.567.593-.19.202-.38.409-.568.619-.022.022-.042.048-.068.076-.179.202-.357.403-.527.607-.25.284-.497.588-.738.883l-.437.541c-.042.06-.094.12-.139.18-.176.229-.355.459-.528.688l-.215.284v4.795c-.004.294.009.589.04.882 0 .151.061.296.17.403.11.054.236.065.354.03.246-.053.485-.135.712-.243l.14.505c-.23.147-.457.284-.687.423a9.82 9.82 0 0 1-.65.357 5.518 5.518 0 0 1-.536.25 1.1 1.1 0 0 1-.343.093.548.548 0 0 1-.307-.093.791.791 0 0 1-.246-.284 2.12 2.12 0 0 1-.19-.528 5.075 5.075 0 0 1-.117-.794 9.52 9.52 0 0 1-1.04.885 5.467 5.467 0 0 1-.852.52 2.89 2.89 0 0 1-.323.13 7.944 7.944 0 0 0-.12.425c-.034.142-.068.25-.096.378l-.07.283c-.092.407-.162.816-.21 1.229 0 .082-.02.161-.03.246a6.105 6.105 0 0 0-.022.284 3.16 3.16 0 0 0-.023.335c0 .093 0 .184-.014.284a11.458 11.458 0 0 0 .783 4.564c.054.14.11.284.17.417.06.133.091.207.14.306.048.1.136.284.212.426.046.094.097.184.145.284.048.099.102.181.153.283.082.142.165.284.255.417.057.094.12.185.182.284.023.037.048.074.077.11l.453.091c.303.061.605.119.905.174l.477.045.42.07a33.048 33.048 0 0 0 1.126.163l.389.048c.159.02.32.04.48.054l.297.028c.145.017.284.028.44.04.24.02.484.038.732.05l.283.015c.21 0 .417.02.63.023h.244c.998.018 1.996-.03 2.987-.142 6.196-.72 11.348-4.76 12.829-10.897.338-1.374.488-2.789.445-4.204zm-11.81-2.945c.083.258.125.527.125.798a2.65 2.65 0 0 1-.32 1.296 3.33 3.33 0 0 1-.832 1.002 3.926 3.926 0 0 1-1.188.652 4.11 4.11 0 0 1-1.368.235h-.054a2.86 2.86 0 0 0-.55.568.999.999 0 0 0-.142.284.298.298 0 0 0 .085.198.786.786 0 0 0 .326.187c.226.078.458.138.693.18.283.056.683.118 1.163.178.576.057 1.146.17 1.702.335.378.112.737.28 1.067.496.235.155.426.37.553.621.103.222.157.464.156.71 0 .319-.067.635-.196.927-.13.31-.31.597-.53.851a4.5 4.5 0 0 1-.798.715 5.861 5.861 0 0 1-.978.55c-.354.152-.72.272-1.095.358a5.016 5.016 0 0 1-1.135.128c-.313-.001-.626-.02-.936-.057a6.925 6.925 0 0 1-.948-.187 5.523 5.523 0 0 1-.882-.33 3.12 3.12 0 0 1-.735-.476 2.23 2.23 0 0 1-.502-.636 1.716 1.716 0 0 1-.184-.802c.002-.168.034-.334.093-.491.082-.202.203-.386.355-.542.222-.233.466-.444.729-.63.398-.282.814-.54 1.245-.769a2.235 2.235 0 0 1-.817-.465.752.752 0 0 1-.244-.519.59.59 0 0 1 .06-.221c.058-.12.132-.232.221-.332a3.93 3.93 0 0 1 .443-.434c.228-.195.465-.377.712-.548a3.404 3.404 0 0 1-.871-.38 2.655 2.655 0 0 1-1.115-1.356 2.809 2.809 0 0 1-.153-.936c0-.444.107-.88.312-1.274.208-.398.489-.753.828-1.047a4.13 4.13 0 0 1 1.183-.709c.441-.173.91-.262 1.385-.26a3.5 3.5 0 0 1 1.985.606 8.794 8.794 0 0 0 1.524-.283c.405-.122.74-.23.996-.324l.212.284c-.068.156-.139.32-.215.485a2.27 2.27 0 0 1-.31.48c-.22.036-.445.07-.666.096-.221.025-.474.048-.75.06.157.223.279.469.361.728zm3.634 3.57c.112.385.286.749.517 1.077.212.299.487.547.805.73.326.188.696.286 1.073.283.19.002.379-.01.567-.037.2-.03.397-.083.584-.159a4.67 4.67 0 0 0 .701-.363c.313-.199.616-.414.908-.644a.68.68 0 0 1 .23.221c.076.105.127.18.156.23-.348.376-.717.732-1.104 1.067a4.97 4.97 0 0 1-.905.627 2.87 2.87 0 0 1-.85.298c-.304.052-.61.078-.917.076a3.282 3.282 0 0 1-1.393-.306 3.563 3.563 0 0 1-1.16-.888 4.17 4.17 0 0 1-.792-1.35 4.996 4.996 0 0 1-.284-1.765c0-.404.044-.808.13-1.203a4.823 4.823 0 0 1 1.007-2.057c.25-.293.536-.552.852-.771.156-.106.319-.2.488-.284.183-.094.373-.176.567-.244.194-.07.392-.127.593-.17.187-.039.377-.06.568-.062a3.45 3.45 0 0 1 1.078.156c.305.094.592.238.85.425.239.179.446.394.616.639.167.243.305.505.412.78.107.275.186.56.235.85.048.282.073.567.074.852a1.898 1.898 0 0 1-.488.366 5.126 5.126 0 0 1-.616.283h-4.695c.002.455.067.906.193 1.342zm3.5-3.873a1.782 1.782 0 0 0-.547-.567 1.583 1.583 0 0 0-.913-.242 1.878 1.878 0 0 0-1.478.684c-.195.235-.35.5-.457.786a4.428 4.428 0 0 0-.252 1.01h3.645c.1.012.2-.013.284-.068a.374.374 0 0 0 .07-.264 3.234 3.234 0 0 0-.073-.624 2.352 2.352 0 0 0-.278-.715z"/>
        <path fill="#2FD3B7" d="M32.928 22.295a2.956 2.956 0 0 1-.409.184c0-.03.023-.068.037-.099.026-.076.057-.153.09-.23.035-.076.069-.164.103-.246a23.058 23.058 0 0 1 1.577-3.056v2.343a8.939 8.939 0 0 1-.74.667c-.207.165-.427.31-.658.437zM43.367 17.183c.098.292.147.597.145.905.005.268-.041.535-.136.786-.082.21-.205.403-.36.567-.139.145-.306.26-.491.335-.17.072-.352.11-.536.11a2.667 2.667 0 0 1-1.036-.181 1.986 1.986 0 0 1-.723-.5 2.08 2.08 0 0 1-.423-.765 2.982 2.982 0 0 1-.136-.905 1.875 1.875 0 0 1 .15-.783c.09-.212.22-.404.383-.568a1.67 1.67 0 0 1 .494-.34c.156-.07.325-.109.496-.114.344-.007.685.055 1.005.182.275.114.523.286.726.505.199.222.35.483.442.766zM39.88 24.139c.286-.22.588-.419.903-.593a12.366 12.366 0 0 0 1.333.221c.44.046.878.122 1.308.227.278.065.546.167.797.304.164.085.301.214.397.372.075.13.113.28.111.43a1.813 1.813 0 0 1-.672 1.42c-.237.19-.507.333-.797.422a3.35 3.35 0 0 1-1.061.156c-.4.001-.8-.046-1.19-.142a4.003 4.003 0 0 1-.983-.383 2.139 2.139 0 0 1-.664-.567 1.106 1.106 0 0 1-.244-.678c0-.107.016-.213.045-.315.045-.142.118-.273.216-.386.149-.18.317-.344.502-.488z"/>
        <path fill="#2FD3B7" d="M56.763 19.858v-.31c0-.192-.023-.385-.042-.566 0-.111-.02-.225-.034-.338-.015-.114-.026-.218-.04-.33a9.344 9.344 0 0 0-.057-.39c-.023-.131-.037-.228-.057-.341l-.056-.304c-.029-.158-.068-.314-.105-.476a14.056 14.056 0 0 0-.607-1.963c-.046-.117-.057-.15-.091-.227a9.276 9.276 0 0 0-.185-.429c-.065-.144-.096-.215-.147-.323l-.159-.33a5.816 5.816 0 0 0-.159-.3c-.054-.096-.113-.21-.17-.309-.057-.1-.12-.204-.179-.304-.06-.099-.105-.17-.156-.252a7.903 7.903 0 0 0-.241-.363c-.085-.12-.125-.179-.19-.267-.065-.088-.14-.193-.213-.284-.031-.045-.07-.093-.108-.139l-.11-.139a11.597 11.597 0 0 0-.392-.46l-.07-.079a11.946 11.946 0 0 0-.494-.513 6.355 6.355 0 0 0-.284-.264l-.284-.252-.19-.162-.19-.156a9.553 9.553 0 0 0-.377-.312c-.128-.1-.253-.207-.38-.304l-.04-.03-.176-.131a12.406 12.406 0 0 0-.431-.332c-.201-.15-.4-.301-.604-.449-.41-.295-.824-.578-1.24-.85-.416-.273-.84-.54-1.274-.8l-.48.283c-.113.063-.22.13-.331.199l-.4.247c-.133.082-.264.164-.394.252-.261.167-.522.343-.778.522l-.386.284-.377.283c-.377.284-.749.568-1.115.851l-.403.332c-.266.224-.53.451-.794.681l-.391.352c-.379.354-.757.714-1.135 1.08l-.369.372-.122.125c-.19.196-.377.392-.567.593-.19.202-.38.409-.568.619-.022.022-.042.048-.068.076-.179.202-.357.403-.527.607-.25.284-.497.588-.738.883l-.437.541c-.042.06-.094.12-.139.18-.176.229-.355.459-.528.688l-.215.284v4.795c-.004.294.009.589.04.882 0 .151.061.296.17.403.11.054.236.065.354.03.246-.053.485-.135.712-.243l.14.505c-.23.147-.457.284-.687.423a9.82 9.82 0 0 1-.65.357 5.518 5.518 0 0 1-.536.25 1.1 1.1 0 0 1-.343.093.548.548 0 0 1-.307-.093.791.791 0 0 1-.246-.284 2.12 2.12 0 0 1-.19-.528 5.075 5.075 0 0 1-.117-.794 9.52 9.52 0 0 1-1.04.885 5.467 5.467 0 0 1-.852.52 2.89 2.89 0 0 1-.323.13 7.944 7.944 0 0 0-.12.425c-.034.142-.068.25-.096.378l-.07.283c-.092.407-.162.816-.21 1.229 0 .082-.02.161-.03.246a6.105 6.105 0 0 0-.022.284 3.16 3.16 0 0 0-.023.335c0 .093 0 .184-.014.284a11.458 11.458 0 0 0 .783 4.564c.054.14.11.284.17.417.06.133.091.207.14.306.048.1.136.284.212.426.046.094.097.184.145.284.048.099.102.181.153.283.082.142.165.284.255.417.057.094.12.185.182.284.023.037.048.074.077.11l.453.091c.303.061.605.119.905.174l.477.045.42.07a33.048 33.048 0 0 0 1.126.163l.389.048c.159.02.32.04.48.054l.297.028c.145.017.284.028.44.04.24.02.484.038.732.05l.283.015c.21 0 .417.02.63.023h.244c.998.018 1.996-.03 2.987-.142 6.196-.72 11.348-4.76 12.829-10.897.338-1.374.488-2.789.445-4.204zm-11.81-2.945c.083.258.125.527.125.798a2.65 2.65 0 0 1-.32 1.296 3.33 3.33 0 0 1-.832 1.002 3.926 3.926 0 0 1-1.188.652 4.11 4.11 0 0 1-1.368.235h-.054a2.86 2.86 0 0 0-.55.568.999.999 0 0 0-.142.284.298.298 0 0 0 .085.198.786.786 0 0 0 .326.187c.226.078.458.138.693.18.283.056.683.118 1.163.178.576.057 1.146.17 1.702.335.378.112.737.28 1.067.496.235.155.426.37.553.621.103.222.157.464.156.71 0 .319-.067.635-.196.927-.13.31-.31.597-.53.851a4.5 4.5 0 0 1-.798.715 5.861 5.861 0 0 1-.978.55c-.354.152-.72.272-1.095.358a5.016 5.016 0 0 1-1.135.128c-.313-.001-.626-.02-.936-.057a6.925 6.925 0 0 1-.948-.187 5.523 5.523 0 0 1-.882-.33 3.12 3.12 0 0 1-.735-.476 2.23 2.23 0 0 1-.502-.636 1.716 1.716 0 0 1-.184-.802c.002-.168.034-.334.093-.491.082-.202.203-.386.355-.542.222-.233.466-.444.729-.63.398-.282.814-.54 1.245-.769a2.235 2.235 0 0 1-.817-.465.752.752 0 0 1-.244-.519.59.59 0 0 1 .06-.221c.058-.12.132-.232.221-.332a3.93 3.93 0 0 1 .443-.434c.228-.195.465-.377.712-.548a3.404 3.404 0 0 1-.871-.38 2.655 2.655 0 0 1-1.115-1.356 2.809 2.809 0 0 1-.153-.936c0-.444.107-.88.312-1.274.208-.398.489-.753.828-1.047a4.13 4.13 0 0 1 1.183-.709c.441-.173.91-.262 1.385-.26a3.5 3.5 0 0 1 1.985.606 8.794 8.794 0 0 0 1.524-.283c.405-.122.74-.23.996-.324l.212.284c-.068.156-.139.32-.215.485a2.27 2.27 0 0 1-.31.48c-.22.036-.445.07-.666.096-.221.025-.474.048-.75.06.157.223.279.469.361.728zm3.634 3.57c.112.385.286.749.517 1.077.212.299.487.547.805.73.326.188.696.286 1.073.283.19.002.379-.01.567-.037.2-.03.397-.083.584-.159a4.67 4.67 0 0 0 .701-.363c.313-.199.616-.414.908-.644a.68.68 0 0 1 .23.221c.076.105.127.18.156.23-.348.376-.717.732-1.104 1.067a4.97 4.97 0 0 1-.905.627 2.87 2.87 0 0 1-.85.298c-.304.052-.61.078-.917.076a3.282 3.282 0 0 1-1.393-.306 3.563 3.563 0 0 1-1.16-.888 4.17 4.17 0 0 1-.792-1.35 4.996 4.996 0 0 1-.284-1.765c0-.404.044-.808.13-1.203a4.823 4.823 0 0 1 1.007-2.057c.25-.293.536-.552.852-.771.156-.106.319-.2.488-.284.183-.094.373-.176.567-.244.194-.07.392-.127.593-.17.187-.039.377-.06.568-.062a3.45 3.45 0 0 1 1.078.156c.305.094.592.238.85.425.239.179.446.394.616.639.167.243.305.505.412.78.107.275.186.56.235.85.048.282.073.567.074.852a1.898 1.898 0 0 1-.488.366 5.126 5.126 0 0 1-.616.283h-4.695c.002.455.067.906.193 1.342zm3.5-3.873a1.782 1.782 0 0 0-.547-.567 1.583 1.583 0 0 0-.913-.242 1.878 1.878 0 0 0-1.478.684c-.195.235-.35.5-.457.786a4.428 4.428 0 0 0-.252 1.01h3.645c.1.012.2-.013.284-.068a.374.374 0 0 0 .07-.264 3.234 3.234 0 0 0-.073-.624 2.352 2.352 0 0 0-.278-.715z"/>
    </g>
</svg>
